<svg width="64" height="64" viewBox="0 0 64 64" fill="none" xmlns="http://www.w3.org/2000/svg">
<circle cx="32" cy="32" r="32" fill="#C5D5FF" fillOpacity="0.4"/>
<path d="M21 44.6888C21 44.861 21.1396 45.0005 21.3118 45.0005H29.1043C29.2766 45.0005 29.4161 44.8612 29.4161 44.6888C29.4161 42.85 28.2288 41.2872 26.5822 40.7157C27.3452 40.2502 27.8576 39.4123 27.8576 38.4547C27.8576 36.9939 26.6692 35.8052 25.2081 35.8052C23.7472 35.8052 22.5585 36.9938 22.5585 38.4547C22.5585 39.4123 23.0708 40.2502 23.8339 40.7157C22.1874 41.2872 21 42.85 21 44.6888H21ZM23.1821 38.4547C23.1821 37.3376 24.0909 36.4288 25.2081 36.4288C26.3252 36.4288 27.234 37.3376 27.234 38.4547C27.234 39.5719 26.3252 40.4807 25.2081 40.4807C24.0909 40.4807 23.1821 39.5719 23.1821 38.4547ZM25.2081 41.1043C27.0797 41.1043 28.6207 42.5458 28.7793 44.3772L21.6369 44.377C21.7954 42.5459 23.3365 41.1043 25.2081 41.1043V41.1043Z" fill="#004BFF" stroke="#004BFF"/>
<path d="M42.166 25.9106C42.9291 25.445 43.4416 24.6071 43.4416 23.6496C43.4416 22.1887 42.2531 21 40.792 21C39.3312 21 38.1425 22.1886 38.1425 23.6496C38.1425 24.6071 38.6547 25.4451 39.4179 25.9106C37.7713 26.482 36.584 28.0448 36.584 29.8836C36.584 30.0558 36.7236 30.1953 36.8958 30.1953H44.6883C44.8605 30.1953 45 30.056 45 29.8836C45 28.0448 43.8127 26.482 42.1659 25.9106H42.166ZM38.7661 23.6496C38.7661 22.5325 39.6749 21.6236 40.792 21.6236C41.9091 21.6236 42.818 22.5325 42.818 23.6496C42.818 24.7667 41.9091 25.6755 40.792 25.6755C39.6749 25.6755 38.7661 24.7667 38.7661 23.6496ZM37.2209 29.5719C37.3794 27.7407 38.9204 26.2992 40.792 26.2992C42.6636 26.2992 44.2047 27.7407 44.3632 29.5719H37.2209Z" fill="#004BFF" stroke="#004BFF"/>
<path d="M24.4294 33.3123C24.6016 33.3123 24.7412 33.1729 24.7412 33.0005C24.7412 28.7129 28.0251 25.179 32.2097 24.7794L31.2219 25.7671C31.1002 25.8889 31.1002 26.0861 31.2219 26.2079C31.2828 26.2687 31.3626 26.2992 31.4424 26.2992C31.5222 26.2992 31.602 26.2687 31.6629 26.2079L33.2213 24.6493C33.2513 24.6193 33.2733 24.5848 33.2885 24.548C33.3037 24.5113 33.3127 24.4711 33.3127 24.4289C33.3127 24.3867 33.3037 24.3465 33.2885 24.3097C33.2733 24.273 33.2511 24.2384 33.2213 24.2084L31.6629 22.6499C31.5411 22.5282 31.3439 22.5282 31.2221 22.6499C31.1004 22.7717 31.1004 22.9689 31.2221 23.0906L32.2803 24.1489C27.7179 24.5174 24.1172 28.3452 24.1172 33.0006C24.1172 33.1728 24.2568 33.3124 24.429 33.3124L24.4294 33.3123Z" fill="#004BFF" stroke="#004BFF"/>
<path d="M34.7792 39.7935C34.6575 39.6718 34.4603 39.6718 34.3385 39.7935L32.78 41.352C32.75 41.382 32.728 41.4166 32.7128 41.4534C32.6974 41.4901 32.6885 41.5303 32.6885 41.5725C32.6885 41.6147 32.6974 41.6549 32.7126 41.6917C32.7278 41.7284 32.75 41.763 32.7798 41.793L34.3383 43.3515C34.3992 43.4124 34.479 43.4428 34.5588 43.4428C34.6386 43.4428 34.7184 43.4124 34.7792 43.3515C34.901 43.2297 34.901 43.0325 34.7792 42.9108L33.721 41.8525C38.2832 41.484 41.8837 37.6562 41.8837 33.0008C41.8837 32.8286 41.7441 32.689 41.5719 32.689C41.3997 32.689 41.2601 32.8283 41.2601 33.0008C41.2601 37.2884 37.9761 40.8222 33.7915 41.2219L34.7793 40.2341C34.901 40.1126 34.901 39.9152 34.7793 39.7934L34.7792 39.7935Z" fill="#004BFF" stroke="#004BFF"/>
</svg>
