<svg width="64" height="64" viewBox="0 0 64 64" fill="none" xmlns="http://www.w3.org/2000/svg">
<circle cx="32" cy="32" r="32" fill="#C5D5FF" fillOpacity="0.4"/>
<path d="M22.5 33H33V34.75H22.5V33ZM20.75 28.625H29.5V30.375H20.75V28.625Z" fill="#004BFF"/>
<path d="M45.1786 33.5303L42.5536 27.4053C42.4862 27.2478 42.3741 27.1136 42.2311 27.0194C42.0882 26.9251 41.9207 26.8749 41.7494 26.875H39.1244V25.125C39.1244 24.8929 39.0323 24.6704 38.8682 24.5063C38.7041 24.3422 38.4815 24.25 38.2494 24.25H24.2494V26H37.3744V36.9865C36.9757 37.218 36.6268 37.5262 36.3478 37.8932C36.0687 38.2603 35.8651 38.6789 35.7487 39.125H30.2502C30.0372 38.3002 29.5307 37.5813 28.8257 37.1032C28.1206 36.6251 27.2654 36.4206 26.4203 36.5279C25.5752 36.6352 24.7983 37.0471 24.2352 37.6863C23.672 38.3255 23.3613 39.1481 23.3613 40C23.3613 40.8519 23.672 41.6745 24.2352 42.3137C24.7983 42.9529 25.5752 43.3648 26.4203 43.4721C27.2654 43.5794 28.1206 43.3749 28.8257 42.8968C29.5307 42.4187 30.0372 41.6998 30.2502 40.875H35.7487C35.939 41.626 36.3743 42.292 36.9857 42.7678C37.5971 43.2435 38.3497 43.5019 39.1244 43.5019C39.8991 43.5019 40.6517 43.2435 41.2631 42.7678C41.8745 42.292 42.3098 41.626 42.5002 40.875H44.3744C44.6065 40.875 44.8291 40.7828 44.9932 40.6187C45.1573 40.4546 45.2494 40.2321 45.2494 40V33.875C45.2495 33.7565 45.2254 33.6392 45.1786 33.5303ZM26.8744 41.75C26.5283 41.75 26.19 41.6474 25.9022 41.4551C25.6144 41.2628 25.3901 40.9895 25.2576 40.6697C25.1252 40.3499 25.0905 39.9981 25.1581 39.6586C25.2256 39.3191 25.3923 39.0073 25.637 38.7626C25.8817 38.5178 26.1936 38.3512 26.533 38.2836C26.8725 38.2161 27.2244 38.2508 27.5441 38.3832C27.8639 38.5157 28.1372 38.74 28.3295 39.0278C28.5218 39.3155 28.6244 39.6539 28.6244 40C28.624 40.464 28.4395 40.9088 28.1114 41.2369C27.7833 41.565 27.3384 41.7495 26.8744 41.75ZM39.1244 28.625H41.1719L43.0479 33H39.1244V28.625ZM39.1244 41.75C38.7783 41.75 38.44 41.6474 38.1522 41.4551C37.8644 41.2628 37.6401 40.9895 37.5077 40.6697C37.3752 40.3499 37.3405 39.9981 37.4081 39.6586C37.4756 39.3191 37.6423 39.0073 37.887 38.7626C38.1317 38.5178 38.4436 38.3512 38.783 38.2836C39.1225 38.2161 39.4744 38.2508 39.7941 38.3832C40.1139 38.5157 40.3872 38.74 40.5795 39.0278C40.7718 39.3155 40.8744 39.6539 40.8744 40C40.874 40.464 40.6895 40.9088 40.3614 41.2369C40.0333 41.565 39.5884 41.7495 39.1244 41.75ZM43.4994 39.125H42.5002C42.3074 38.3755 41.8714 37.7112 41.2605 37.2361C40.6496 36.7611 39.8983 36.5022 39.1244 36.5V34.75H43.4994V39.125Z" fill="#004BFF"/>
</svg>
