<svg width="56" height="56" viewBox="0 0 56 56" fill="none" xmlns="http://www.w3.org/2000/svg">
<circle cx="28" cy="28" r="28" fill="#C5D5FF" fillOpacity="0.4"/>
<path d="M26.1673 33.2498L29.6673 34.4165C29.6673 34.4165 38.4173 32.6665 39.584 32.6665C40.7507 32.6665 40.7507 33.8332 39.584 34.9998C38.4173 36.1665 34.334 39.6665 30.834 39.6665C27.334 39.6665 25.0007 37.9165 22.6673 37.9165C20.334 37.9165 16.834 37.9165 16.834 37.9165" stroke="#004BFF" strokeWidth="2" stroke-linecap="round" stroke-linejoin="round"/>
<path d="M16.834 30.9167C18.0007 29.75 20.334 28 22.6673 28C25.0007 28 30.5423 30.3333 31.4173 31.5C32.2923 32.6667 29.6673 34.4167 29.6673 34.4167" stroke="#004BFF" strokeWidth="2" stroke-linecap="round" stroke-linejoin="round"/>
<path d="M23.834 24.4998V19.8332C23.834 19.1888 24.3563 18.6665 25.0007 18.6665H39.0007C39.645 18.6665 40.1673 19.1888 40.1673 19.8332V29.1665" stroke="#004BFF" strokeWidth="2" stroke-linecap="round" stroke-linejoin="round"/>
<path d="M34.9173 18.6665H29.084V23.9165H34.9173V18.6665Z" fill="#C5D5FF" stroke="#004BFF" strokeWidth="2" stroke-linecap="round" stroke-linejoin="round"/>
</svg>
