<svg width="64" height="64" viewBox="0 0 64 64" fill="none" xmlns="http://www.w3.org/2000/svg">
<circle cx="28" cy="28" r="28" fill="#C5D5FF" fillOpacity="0.4"/>
<g clipPath="url(#clip0_457_162)">
<path d="M28.5 15C35.6799 15 41.5 20.8201 41.5 28C41.5 35.1799 35.6799 41 28.5 41C21.3201 41 15.5 35.1799 15.5 28C15.5 20.8201 21.3201 15 28.5 15ZM28.5 16.8135C25.5332 16.8135 22.6878 17.9921 20.5899 20.0899C18.4921 22.1878 17.3135 25.0332 17.3135 28C17.3135 30.9668 18.4921 33.8122 20.5899 35.91C22.6878 38.0079 25.5332 39.1865 28.5 39.1865C31.4668 39.1865 34.3122 38.0079 36.41 35.91C38.5079 33.8122 39.6865 30.9668 39.6865 28C39.6865 25.0332 38.5079 22.1878 36.41 20.0899C34.3122 17.9921 31.4668 16.8135 28.5 16.8135ZM31.1624 19.5344C32.0076 19.854 32.7979 20.3031 33.505 20.8656C33.6675 20.9904 33.8235 21.123 33.9769 21.2647C34.0055 21.2894 34.0302 21.3154 34.0575 21.3427C34.4839 21.7366 34.8713 22.1799 35.2145 22.6557C35.2626 22.722 35.3133 22.7831 35.3575 22.8468C35.4407 22.969 35.5187 23.0964 35.5967 23.2238C35.7308 23.4387 35.8545 23.6599 35.9672 23.8868C36.0361 24.0168 36.0972 24.1585 36.1609 24.2963C36.2038 24.3912 36.2519 24.4887 36.2909 24.5901C36.3858 24.8267 36.4703 25.0646 36.547 25.3077C36.5717 25.3883 36.5912 25.4741 36.6146 25.5547C36.7465 26.0172 36.84 26.4899 36.8941 26.9678C36.9032 27.0536 36.9162 27.1446 36.9227 27.2291C36.9487 27.5086 36.9656 27.7907 36.9656 28.0741C36.9639 28.6279 36.913 29.1804 36.8135 29.7251C36.7953 29.82 36.7797 29.9162 36.7615 30.0072C36.7095 30.2542 36.6497 30.496 36.5795 30.7352C35.9178 30.4323 35.1404 29.9864 34.9376 29.4963C34.5684 28.6123 33.5856 28.1703 33.1852 27.0315C32.5261 25.1465 33.401 25.1959 33.5232 24.0259C33.5804 23.4773 33.1852 23.3629 32.6639 23.5865C31.4471 24.0974 31.035 23.9011 30.7893 22.9846C30.5436 22.0707 30.7893 21.8159 30.7893 21.8159C29.9599 21.9069 29.9287 20.8968 30.359 20.642C30.658 20.4704 30.9115 19.9439 31.1624 19.5344ZM27.6862 25.1361C28.4532 24.7851 29.1617 24.659 29.0681 24.0558C28.9771 23.4591 28.7613 23.0145 27.5627 23.0145C26.3641 23.0145 26.8867 24.659 25.9039 23.6775C24.9211 22.7025 26.1184 22.9547 26.6098 22.7324C27.1025 22.5088 27.5939 21.5923 26.7333 21.5273C25.874 21.4662 26.0573 21.9069 25.3813 21.6573C24.7053 21.4025 24.3985 22.54 23.9669 22.3814C23.6835 22.2748 22.923 21.6898 22.4186 21.1139C21.3893 22.0091 20.5745 23.1243 20.0344 24.3769C20.1813 26.076 21.0796 26.9678 21.0796 26.9678C21.0796 26.9678 21.5411 28.0741 24.3075 29.4339C24.3075 29.4339 24.8275 29.4651 24.2139 28.8346C23.6003 28.2015 22.923 27.4111 23.6913 27.0016C24.4583 26.5869 24.6754 26.622 24.86 27.3825C25.0433 28.1417 25.6595 27.6945 25.7193 26.9678C25.7817 26.2437 26.9179 25.4858 27.6862 25.1348V25.1361ZM27.1012 28.9581C28.4246 28.9581 28.3011 29.3702 29.3463 30.2906C30.3902 31.2058 29.8377 32.1223 29.3138 32.8191C28.7925 33.5133 28.331 34.3011 28.0853 35.7285C27.8383 37.1507 27.1935 36.1367 26.9803 35.7896C26.7645 35.4399 26.4265 35.1253 26.5201 33.6706C26.6111 32.2172 25.627 33.0726 25.2903 31.1746C24.9523 29.2792 25.7817 28.9594 27.1025 28.9594L27.1012 28.9581ZM33.5713 30.2113C33.9236 29.9864 34.7673 30.5727 34.5853 31.1902C34.3994 31.8077 33.817 31.4593 33.5245 31.1902C33.232 30.9224 33.2164 30.4323 33.5713 30.2113Z" fill="#004BFF"/>
</g>
<defs>
<clipPath id="clip0_457_162">
<rect width="26" height="26" fill="white" transform="translate(15.5 15)"/>
</clipPath>
</defs>
</svg>
