<svg width="56" height="56" viewBox="0 0 56 56" fill="none" xmlns="http://www.w3.org/2000/svg">
<circle cx="28" cy="28" r="28" fill="#C5D5FF" fillOpacity="0.4"/>
<path d="M18 34C26 34 28 18 36 18M32 34C32 34.5304 32.2107 35.0391 32.5858 35.4142C32.9609 35.7893 33.4696 36 34 36C34.5304 36 35.0391 35.7893 35.4142 35.4142C35.7893 35.0391 36 34.5304 36 34C36 33.4696 35.7893 32.9609 35.4142 32.5858C35.0391 32.2107 34.5304 32 34 32C33.4696 32 32.9609 32.2107 32.5858 32.5858C32.2107 32.9609 32 33.4696 32 34ZM32 34H30H32ZM22 18C22 18.5304 21.7893 19.0391 21.4142 19.4142C21.0391 19.7893 20.5304 20 20 20C19.4696 20 18.9609 19.7893 18.5858 19.4142C18.2107 19.0391 18 18.5304 18 18C18 17.4696 18.2107 16.9609 18.5858 16.5858C18.9609 16.2107 19.4696 16 20 16C20.5304 16 21.0391 16.2107 21.4142 16.5858C21.7893 16.9609 22 17.4696 22 18V18ZM22 18H24H22ZM29 18H27H29ZM27 34H25H27Z" stroke="#004BFF" strokeWidth="1.5" stroke-linecap="round" stroke-linejoin="round"/>
</svg>
