<svg width="64" height="64" viewBox="0 0 64 64" fill="none" xmlns="http://www.w3.org/2000/svg">
<circle cx="32" cy="32" r="32" fill="#C5D5FF" fillOpacity="0.4"/>
<path d="M32.9224 32.4556C35.0224 32.4556 36.6558 30.7445 36.6558 28.6445C36.6558 26.5445 34.9447 24.9111 32.8447 24.9111C30.7447 24.9111 29.1113 26.6222 29.1113 28.6445C29.1113 30.7445 30.8224 32.4556 32.9224 32.4556ZM32.8447 26.4667C32.9224 26.4667 32.9224 26.4667 32.8447 26.4667C34.0891 26.4667 35.1002 27.4778 35.1002 28.7222C35.1002 29.9667 34.0891 30.9 32.8447 30.9C31.6002 30.9 30.6669 29.8889 30.6669 28.7222C30.6669 27.4778 31.678 26.4667 32.8447 26.4667Z" fill="#004BFF"/>
<path d="M44.4327 31.9889C42.9549 30.6666 41.0105 29.9666 38.9882 30.0444H38.366C38.2105 30.6666 37.9771 31.2111 37.666 31.6778C38.1327 31.6 38.5216 31.6 38.9882 31.6C40.466 31.5222 41.9438 31.9889 43.1105 32.8444V38.4444H44.666V32.2222L44.4327 31.9889Z" fill="#004BFF"/>
<path d="M37.2002 25.0665C37.5891 24.1331 38.678 23.6665 39.6891 24.0553C40.6224 24.4442 41.0891 25.5331 40.7002 26.5442C40.3891 27.2442 39.6891 27.7109 38.9891 27.7109C38.8336 27.7109 38.6002 27.7109 38.4447 27.6331C38.5224 28.022 38.5224 28.4109 38.5224 28.722V29.1887C38.678 29.1887 38.8336 29.2665 38.9891 29.2665C40.9335 29.2665 42.4891 27.7109 42.4891 25.8442C42.4891 23.8998 40.9335 22.3442 39.0669 22.3442C37.8224 22.3442 36.7336 22.9665 36.1113 24.0553C36.5002 24.2887 36.8891 24.5998 37.2002 25.0665Z" fill="#004BFF"/>
<path d="M28.334 31.7554C28.0229 31.2887 27.7895 30.7443 27.634 30.1221H27.0118C24.9895 30.0443 23.0451 30.7443 21.5673 31.9887L21.334 32.2221V38.4443H22.8895V32.8443C24.134 31.9887 25.534 31.5221 27.0118 31.5999C27.4784 31.5999 27.9451 31.6776 28.334 31.7554Z" fill="#004BFF"/>
<path d="M27.0107 29.1888C27.1663 29.1888 27.3218 29.1888 27.4774 29.111V28.6444C27.4774 28.2555 27.4774 27.8666 27.5552 27.5555C27.3996 27.6332 27.1663 27.6332 27.0107 27.6332C25.9996 27.6332 25.144 26.7777 25.144 25.7666C25.144 24.7555 25.9996 23.8999 27.0107 23.8999C27.7885 23.8999 28.4885 24.3666 28.7996 25.0666C29.1107 24.6777 29.5774 24.2888 29.9663 23.9777C28.9552 22.3444 26.8552 21.7999 25.2218 22.811C23.5885 23.8221 23.044 25.9221 24.0552 27.5555C24.6774 28.5666 25.7663 29.1888 27.0107 29.1888Z" fill="#004BFF"/>
<path d="M39.2996 36.6554L39.144 36.4221C37.5885 34.711 35.4107 33.6998 33.0773 33.7776C30.744 33.6998 28.4885 34.711 26.9329 36.4221L26.7773 36.6554V42.5665C26.7773 43.2665 27.3218 43.8887 28.0996 43.8887H38.0551C38.7551 43.8887 39.3773 43.2665 39.3773 42.5665V36.6554H39.2996ZM37.744 42.3332H28.3329V37.1998C29.5773 35.9554 31.2885 35.3332 33.0773 35.3332C34.7885 35.2554 36.4996 35.9554 37.744 37.1998V42.3332Z" fill="#004BFF"/>
</svg>
